<svg width="48" height="40" viewBox="0 0 48 40" fill="none" xmlns="http://www.w3.org/2000/svg">
<path d="M4.43752 18.0001H45.6875C46.2345 18.0001 46.7591 18.2108 47.1459 18.5859C47.5327 18.9609 47.75 19.4697 47.75 20.0001C47.75 20.5305 47.5327 21.0392 47.1459 21.4143C46.7591 21.7894 46.2345 22.0001 45.6875 22.0001H4.43752C3.89052 22.0001 3.36591 21.7894 2.97912 21.4143C2.59232 21.0392 2.37502 20.5305 2.37502 20.0001C2.37502 19.4697 2.59232 18.9609 2.97912 18.5859C3.36591 18.2108 3.89052 18.0001 4.43752 18.0001Z" fill="white"/>
<path d="M5.2914 20.0001L22.3978 36.5841C22.7851 36.9596 23.0026 37.469 23.0026 38.0001C23.0026 38.5312 22.7851 39.0405 22.3978 39.4161C22.0105 39.7916 21.4852 40.0026 20.9375 40.0026C20.3898 40.0026 19.8646 39.7916 19.4773 39.4161L0.914774 21.4161C0.722701 21.2303 0.570312 21.0096 0.466336 20.7666C0.362359 20.5236 0.308838 20.2632 0.308838 20.0001C0.308838 19.737 0.362359 19.4765 0.466336 19.2336C0.570312 18.9906 0.722701 18.7699 0.914774 18.5841L19.4773 0.584085C19.8646 0.208538 20.3898 -0.00244141 20.9375 -0.00244141C21.4852 -0.00244141 22.0105 0.208538 22.3978 0.584085C22.7851 0.959631 23.0026 1.46898 23.0026 2.00008C23.0026 2.53119 22.7851 3.04054 22.3978 3.41609L5.2914 20.0001Z" fill="white"/>
</svg>
